<?xml version="1.0" encoding="utf-8"?>
<!-- Generator: Adobe Illustrator 27.5.0, SVG Export Plug-In . SVG Version: 6.00 Build 0)  -->
<svg version="1.1" xmlns="http://www.w3.org/2000/svg" xmlns:xlink="http://www.w3.org/1999/xlink" x="0px" y="0px"
	 viewBox="0 0 750 500" style="enable-background:new 0 0 750 500;" xml:space="preserve">
<g id="Background_Complete">
	<g>
		<g>
			<rect x="360.033" y="69.889" style="fill:#EBEBEB;" width="88.555" height="88.555"/>
		</g>
		<g>
			<g>
				<path style="fill:#E0E0E0;" d="M448.098,71.049c0.007,0.006-0.058,0.09-0.192,0.249c-0.154,0.178-0.353,0.408-0.602,0.697
					c-0.561,0.631-1.348,1.517-2.351,2.645c-2.046,2.294-5.044,5.577-8.784,9.604c-7.476,8.055-17.981,19.021-29.922,30.796
					c-11.95,11.773-23.069,22.12-31.231,29.479c-4.08,3.681-7.407,6.632-9.729,8.644c-1.142,0.986-2.039,1.76-2.679,2.312
					c-0.292,0.245-0.525,0.44-0.705,0.591c-0.161,0.131-0.246,0.195-0.252,0.188c-0.006-0.007,0.068-0.084,0.217-0.228
					c0.172-0.161,0.393-0.369,0.671-0.63c0.624-0.569,1.499-1.368,2.613-2.385c2.297-2.094,5.576-5.082,9.616-8.764
					c8.096-7.426,19.169-17.81,31.113-29.577c11.935-11.769,22.476-22.689,30.019-30.677c3.741-3.987,6.776-7.222,8.903-9.489
					c1.033-1.1,1.845-1.964,2.423-2.579c0.265-0.274,0.476-0.492,0.64-0.662C448.013,71.115,448.091,71.043,448.098,71.049z"/>
			</g>
		</g>
		<g>
			<g>
				<path style="fill:#E0E0E0;" d="M448.588,158.444c-0.006,0.006-0.09-0.065-0.246-0.21c-0.175-0.166-0.401-0.381-0.685-0.652
					c-0.619-0.605-1.49-1.457-2.6-2.542c-2.277-2.237-5.53-5.431-9.539-9.368c-8.107-7.901-19.266-18.776-31.591-30.789
					c-12.301-12.071-23.21-23.23-30.897-31.505c-3.846-4.134-6.923-7.513-9.006-9.886c-1.024-1.166-1.827-2.082-2.398-2.732
					c-0.255-0.299-0.457-0.536-0.614-0.719c-0.136-0.164-0.203-0.251-0.196-0.257c0.007-0.006,0.086,0.069,0.236,0.221
					c0.166,0.175,0.382,0.4,0.652,0.685c0.588,0.635,1.416,1.528,2.47,2.666c2.128,2.331,5.245,5.67,9.124,9.77
					c7.752,8.206,18.696,19.317,30.994,31.385c12.296,12.062,23.488,22.926,31.485,30.898c4,3.984,7.223,7.223,9.424,9.487
					c1.08,1.115,1.928,1.989,2.531,2.611c0.269,0.286,0.483,0.513,0.649,0.688C448.524,158.354,448.594,158.438,448.588,158.444z"/>
			</g>
		</g>
	</g>
	<g>
		<g>
			<g>
				<g>
					<g>
						<rect x="33.295" y="62.933" style="fill:#E0E0E0;" width="112.784" height="163.476"/>
					</g>
				</g>
			</g>
		</g>
		<g>
			<g>
				<g>
					<g>
						<rect x="27.645" y="62.933" style="fill:#F5F5F5;" width="112.784" height="163.476"/>
					</g>
				</g>
			</g>
		</g>
		<g>
			<g>
				<g>
					<g>
						<g>
							<rect x="41.657" y="80.639" style="fill:#FFFFFF;" width="84.759" height="128.065"/>
						</g>
					</g>
				</g>
			</g>
			<g>
				<g>
					<g>
						<g>
							<g>
								<path style="fill:#E0E0E0;" d="M126.416,208.704c0,0-0.011-0.217-0.017-0.626c-0.004-0.423-0.009-1.026-0.017-1.816
									c-0.008-1.609-0.019-3.965-0.034-7.024c-0.018-6.138-0.043-15.082-0.076-26.381c-0.034-22.582-0.082-54.56-0.138-92.218
									l0.281,0.281c-25.895,0.008-54.59,0.016-84.749,0.025h-0.01l0.307-0.306c-0.023,48.311-0.045,92.855-0.062,128.065
									l-0.244-0.244c25.812,0.054,46.97,0.098,61.694,0.128c7.365,0.027,13.116,0.048,17.045,0.062
									c1.952,0.012,3.448,0.021,4.474,0.027C125.883,208.686,126.416,208.704,126.416,208.704s-0.499,0.018-1.495,0.026
									c-1.015,0.006-2.496,0.016-4.428,0.028c-3.916,0.014-9.649,0.035-16.99,0.062c-14.759,0.031-35.969,0.075-61.846,0.128
									l-0.244,0.001l0-0.245c-0.017-35.21-0.039-79.754-0.062-128.065l0-0.307h0.307h0.01c30.159,0.009,58.854,0.018,84.749,0.025
									h0.282l0,0.282c-0.057,37.733-0.104,69.775-0.138,92.402c-0.032,11.271-0.058,20.194-0.076,26.317
									c-0.015,3.034-0.026,5.372-0.034,6.968c-0.007,0.776-0.013,1.369-0.017,1.784
									C126.428,208.509,126.416,208.704,126.416,208.704z"/>
							</g>
						</g>
					</g>
				</g>
			</g>
		</g>
		<g>
			<g>
				<g>
					<g>
						<g>
							<path style="fill:none;stroke:#FBFBFB;stroke-width:0.25;stroke-miterlimit:10;" d="M122.487,81.493"/>
						</g>
					</g>
				</g>
			</g>
		</g>
		<g>
			<g>
				<g>
					<g>
						<g>
							<path style="fill:#E0E0E0;" d="M140.746,62.933c0.066,0.051-0.7,1.169-2.01,2.921c-1.31,1.752-3.17,4.135-5.292,6.712
								c-2.123,2.577-4.106,4.859-5.575,6.481c-1.468,1.622-2.418,2.587-2.481,2.533c-0.065-0.057,0.77-1.123,2.153-2.815
								c1.512-1.835,3.372-4.091,5.43-6.588c2.055-2.497,3.914-4.755,5.425-6.591C139.791,63.904,140.678,62.88,140.746,62.933z"/>
						</g>
					</g>
				</g>
			</g>
		</g>
		<g>
			<g>
				<g>
					<g>
						<g>
							<path style="fill:#FFFFFF;" d="M126.848,208.292c4.21,6.694,9.18,12.909,14.783,18.488"/>
						</g>
					</g>
				</g>
			</g>
			<g>
				<g>
					<g>
						<g>
							<g>
								<path style="fill:#E0E0E0;" d="M141.632,226.78c-0.056,0.056-1.062-0.817-2.577-2.345c-1.516-1.527-3.524-3.725-5.577-6.289
									c-2.051-2.568-3.754-5.011-4.91-6.825c-1.157-1.814-1.787-2.988-1.72-3.03c0.076-0.048,0.836,1.042,2.079,2.787
									c1.243,1.745,2.99,4.132,5.029,6.685c2.041,2.549,3.985,4.779,5.413,6.375C140.799,225.735,141.695,226.716,141.632,226.78z
									"/>
							</g>
						</g>
					</g>
				</g>
			</g>
		</g>
		<g>
			<g>
				<g>
					<g>
						<g>
							<path style="fill:#FFFFFF;" d="M27.628,226.28c4.924-6.076,9.849-12.151,14.773-18.227"/>
						</g>
					</g>
				</g>
			</g>
			<g>
				<g>
					<g>
						<g>
							<g>
								<path style="fill:#E0E0E0;" d="M42.401,208.053c0.132,0.107-3.069,4.274-7.148,9.306c-4.08,5.034-7.494,9.027-7.625,8.921
									c-0.132-0.107,3.068-4.273,7.149-9.307C38.856,211.941,42.27,207.946,42.401,208.053z"/>
							</g>
						</g>
					</g>
				</g>
			</g>
		</g>
		<g>
			<g>
				<g>
					<g>
						<g>
							<path style="fill:#E0E0E0;" d="M27.645,62.933c0.133-0.105,3.344,3.733,7.17,8.572c3.828,4.84,6.823,8.848,6.69,8.953
								c-0.133,0.105-3.343-3.732-7.171-8.573C30.507,67.047,27.512,63.038,27.645,62.933z"/>
						</g>
					</g>
				</g>
			</g>
		</g>
		<g>
			<g>
				<g>
					<g>
						<rect x="71.628" y="106.641" style="fill:#E0E0E0;" width="28.381" height="80.581"/>
					</g>
				</g>
			</g>
		</g>
	</g>
	<g>
		<g>
			<g>
				<path style="fill:#E0E0E0;" d="M673.545,158.98l-9.186-2.465l0.493-1.838l9.186,2.465L673.545,158.98z M655.173,154.051
					l-9.186-2.465l0.493-1.838l9.186,2.465L655.173,154.051z M636.802,149.121l-9.186-2.465l0.493-1.838l9.186,2.465
					L636.802,149.121z M618.43,144.191l-9.186-2.465l0.493-1.838l9.186,2.465L618.43,144.191z M675.007,157.203l-1.837-0.493
					l2.466-9.192l1.837,0.493L675.007,157.203z M603.786,137.109l-1.837-0.493l2.466-9.192l1.837,0.493L603.786,137.109z
					 M679.94,138.819l-1.837-0.493l2.467-9.192l1.837,0.493L679.94,138.819z M608.719,118.725l-1.837-0.493l2.467-9.192l1.837,0.493
					L608.719,118.725z M684.873,120.434l-1.837-0.493l2.466-9.192l1.837,0.493L684.873,120.434z M613.652,100.341l-1.837-0.493
					l2.466-9.192l1.837,0.493L613.652,100.341z M689.805,102.05l-1.837-0.493l2.466-9.192l1.837,0.493L689.805,102.05z
					 M618.585,81.956l-1.837-0.493l2.466-9.192l1.837,0.493L618.585,81.956z M689.611,86.627l-9.186-2.465l0.493-1.838l9.186,2.465
					L689.611,86.627z M671.239,81.697l-9.186-2.465l0.493-1.838l9.186,2.465L671.239,81.697z M652.865,76.767l-9.184-2.464
					l0.493-1.838l9.184,2.464L652.865,76.767z M634.495,71.838l-9.186-2.465l0.493-1.838l9.186,2.465L634.495,71.838z"/>
			</g>
		</g>
		<g>
			<g>
				<path style="fill:#E0E0E0;" d="M620.07,75.21c-3.726-1-5.944-4.848-4.944-8.576c1.001-3.729,4.847-5.95,8.573-4.95
					c3.726,1,5.944,4.848,4.944,8.577C627.643,73.989,623.796,76.209,620.07,75.21z M623.206,63.522
					c-2.713-0.728-5.514,0.889-6.243,3.604c-0.729,2.716,0.887,5.517,3.6,6.245c2.713,0.728,5.514-0.889,6.243-3.604
					C627.534,67.051,625.919,64.25,623.206,63.522z"/>
			</g>
		</g>
		<g>
			<g>
				<path style="fill:#E0E0E0;" d="M690.552,94.121c-3.726-1-5.944-4.848-4.944-8.577c1.001-3.729,4.847-5.95,8.573-4.95
					c3.727,1,5.944,4.848,4.944,8.576C698.125,92.901,694.279,95.121,690.552,94.121z M693.688,82.434
					c-2.713-0.728-5.514,0.889-6.243,3.604c-0.729,2.715,0.887,5.517,3.6,6.245c2.713,0.728,5.514-0.889,6.243-3.604
					C698.016,85.964,696.401,83.162,693.688,82.434z"/>
			</g>
		</g>
		<g>
			<g>
				<path style="fill:#E0E0E0;" d="M600.609,147.738c-3.726-1-5.944-4.848-4.944-8.577c1-3.729,4.847-5.95,8.573-4.95
					c3.726,1,5.944,4.848,4.944,8.577C608.182,146.517,604.335,148.737,600.609,147.738z M603.745,136.05
					c-2.713-0.728-5.514,0.889-6.243,3.604c-0.729,2.715,0.887,5.517,3.6,6.245c2.713,0.728,5.514-0.889,6.243-3.604
					C608.073,139.58,606.458,136.778,603.745,136.05z"/>
			</g>
		</g>
		<g>
			<g>
				<path style="fill:#E0E0E0;" d="M671.091,166.649c-3.726-1-5.944-4.848-4.944-8.576c1.001-3.729,4.847-5.95,8.573-4.95
					c3.727,1,5.944,4.848,4.944,8.576C678.664,165.429,674.818,167.649,671.091,166.649z M674.227,154.962
					c-2.713-0.728-5.514,0.889-6.243,3.604c-0.728,2.715,0.887,5.517,3.6,6.245c2.713,0.728,5.514-0.89,6.243-3.604
					C678.555,158.492,676.94,155.69,674.227,154.962z"/>
			</g>
		</g>
		<g>
			<g>
				<path style="fill:#E0E0E0;" d="M649.674,99.255l-13.223-3.548l1.684-6.275l33.853,9.084l-1.684,6.275l-13.223-3.548
					l-9.028,33.647l-7.408-1.988L649.674,99.255z"/>
			</g>
		</g>
	</g>
	<g>
		<g>
			<rect x="650.961" y="215.141" style="fill:#EBEBEB;" width="62.778" height="62.778"/>
		</g>
		<g>
			<g>
				<path style="fill:#E0E0E0;" d="M713.391,215.964c0.013,0.012-0.177,0.246-0.551,0.681c-0.409,0.465-0.961,1.094-1.656,1.885
					c-1.444,1.632-3.563,3.966-6.21,6.825c-5.29,5.72-12.732,13.501-21.198,21.849c-8.472,8.347-16.361,15.676-22.157,20.883
					c-2.897,2.604-5.261,4.69-6.914,6.11c-0.801,0.684-1.437,1.226-1.908,1.628c-0.44,0.368-0.677,0.555-0.689,0.541
					s0.202-0.227,0.619-0.62c0.455-0.42,1.069-0.987,1.843-1.701c1.642-1.505,3.956-3.625,6.8-6.231
					c5.73-5.274,13.573-12.641,22.039-20.982c8.46-8.342,15.938-16.077,21.295-21.73c2.647-2.806,4.8-5.089,6.329-6.71
					c0.725-0.763,1.301-1.37,1.728-1.819C713.161,216.162,713.378,215.952,713.391,215.964z"/>
			</g>
		</g>
		<g>
			<g>
				<path style="fill:#E0E0E0;" d="M713.738,277.919c-0.006,0.006-0.067-0.042-0.18-0.143c-0.134-0.124-0.295-0.274-0.491-0.457
					c-0.456-0.441-1.074-1.038-1.853-1.792c-1.635-1.598-3.943-3.852-6.779-6.624c-5.766-5.611-13.674-13.308-22.411-21.811
					c-8.72-8.558-16.449-16.476-21.889-22.351c-2.722-2.936-4.897-5.336-6.367-7.025c-0.71-0.818-1.274-1.468-1.69-1.947
					c-0.172-0.206-0.313-0.375-0.43-0.515c-0.095-0.118-0.14-0.181-0.133-0.187c0.007-0.006,0.065,0.046,0.173,0.152
					c0.127,0.131,0.281,0.288,0.468,0.48c0.434,0.463,1.021,1.09,1.762,1.881c1.515,1.646,3.731,4.007,6.485,6.909
					c5.505,5.807,13.268,13.677,21.986,22.232c8.716,8.55,16.645,16.259,22.305,21.92c2.831,2.829,5.11,5.131,6.664,6.743
					c0.75,0.783,1.345,1.403,1.784,1.861c0.182,0.197,0.331,0.359,0.455,0.493C713.697,277.852,713.745,277.913,713.738,277.919z"/>
			</g>
		</g>
	</g>
	<g>
		<g>
			<rect x="286.348" y="48.518" style="fill:#F5F5F5;" width="42.585" height="42.585"/>
		</g>
		<g>
			<g>
				<path style="fill:#EBEBEB;" d="M328.697,49.075c0.013,0.012-0.112,0.175-0.361,0.473c-0.291,0.338-0.659,0.764-1.112,1.289
					c-0.972,1.114-2.403,2.703-4.193,4.648c-3.578,3.891-8.62,9.177-14.364,14.84c-5.748,5.663-11.107,10.629-15.049,14.15
					c-1.971,1.761-3.58,3.17-4.708,4.125c-0.531,0.445-0.963,0.807-1.305,1.093c-0.302,0.245-0.466,0.368-0.478,0.354
					c-0.012-0.013,0.129-0.162,0.409-0.433c0.325-0.305,0.735-0.691,1.24-1.166c1.136-1.05,2.693-2.489,4.595-4.246
					c3.876-3.589,9.189-8.591,14.931-14.249c5.738-5.658,10.816-10.897,14.461-14.721c1.785-1.876,3.246-3.412,4.312-4.533
					c0.482-0.498,0.874-0.903,1.184-1.223C328.532,49.202,328.683,49.063,328.697,49.075z"/>
			</g>
		</g>
		<g>
			<g>
				<path style="fill:#EBEBEB;" d="M328.932,91.102c-0.013,0.013-0.173-0.124-0.467-0.395c-0.331-0.314-0.751-0.713-1.268-1.204
					c-1.139-1.104-2.704-2.621-4.617-4.474c-3.939-3.825-9.298-9.028-15.219-14.778c-5.916-5.806-11.153-11.184-14.833-15.181
					c-1.841-1.997-3.31-3.632-4.3-4.784c-0.463-0.543-0.839-0.984-1.135-1.331c-0.255-0.308-0.383-0.476-0.369-0.488
					c0.013-0.012,0.167,0.132,0.447,0.418c0.314,0.33,0.714,0.749,1.207,1.265c1.09,1.152,2.588,2.734,4.418,4.668
					c3.745,3.928,9.016,9.259,14.929,15.062c5.912,5.799,11.284,11.035,15.113,14.887c1.915,1.925,3.455,3.493,4.502,4.593
					c0.489,0.52,0.886,0.942,1.199,1.273C328.81,90.928,328.945,91.09,328.932,91.102z"/>
			</g>
		</g>
	</g>
</g>
<g id="Background_Simple" style="display:none;">
	<g style="display:inline;">
		<path style="fill:#EBEBEB;" d="M584.059,51.327l-1.049,1.479c-8.843,12.469-10.378,28.757-3.495,42.251
			c0.885,1.735,1.895,3.406,3.028,4.995c8.16,11.445,22.45,18.292,36.635,17.554c8.343-0.434,16.939-3.267,24.839-0.658
			c10.282,3.396,15.371,14.513,19.333,24.51c3.962,9.997,9.083,21.109,19.381,24.46c6.449,2.098,13.652,0.535,19.758-2.502
			c16.165-8.041,25.97-25.974,26.977-43.82s-5.807-35.394-15.987-50.042c-14.262-20.519-35.96-36.511-60.744-41.042
			C627.95,23.983,600.355,32.066,584.059,51.327z"/>
	</g>
	<g style="display:inline;">
		
			<ellipse transform="matrix(0.3743 -0.9273 0.9273 0.3743 224.5066 755.7091)" style="fill:#EBEBEB;" cx="672.253" cy="211.489" rx="15.732" ry="15.732"/>
	</g>
	<g style="display:inline;">
		
			<ellipse transform="matrix(0.3779 -0.9259 0.9259 0.3779 83.8387 279.0305)" style="fill:#EBEBEB;" cx="249.546" cy="77.131" rx="24.652" ry="24.652"/>
	</g>
	<g style="display:inline;">
		<path style="fill:#EBEBEB;" d="M195.268,64.059c-9.152-15.502-24.739-25.814-42.293-29.803
			c-18.755-4.263-48.411-6.039-73.901,9.803h0c-10.891,5.657-20.815,13.9-27.893,22.789c-12.117,15.217-16.02,37.335-7.457,54.8
			c8.563,17.466,30.362,28.075,48.767,21.779c16.309-5.579,27.219-22.08,43.739-27c15.621-4.652,33.639,1.924,48.182-5.436
			C200.473,102.861,204.42,79.561,195.268,64.059z"/>
	</g>
</g>
<g id="Page">
	<g>
		<g>
			<g>
				<rect x="158.736" y="126.231" style="fill:#FAFAFA;" width="464.989" height="334.716"/>
			</g>
			<g>
				<g>
					<rect x="158.736" y="126.231" style="fill:#E0E0E0;" width="464.989" height="24.739"/>
				</g>
			</g>
			<g>
				<g>
					<path style="fill:#263238;" d="M175.194,139.039c0,1.775-1.358,3.214-3.034,3.214c-1.676,0-3.034-1.439-3.034-3.214
						c0-1.775,1.359-3.214,3.034-3.214C173.836,135.825,175.194,137.264,175.194,139.039z"/>
				</g>
			</g>
			<g>
				<g>
					<path style="fill:#263238;" d="M186.482,139.039c0,1.775-1.358,3.214-3.034,3.214s-3.034-1.439-3.034-3.214
						c0-1.775,1.358-3.214,3.034-3.214S186.482,137.264,186.482,139.039z"/>
				</g>
			</g>
			<g>
				<g>
					<ellipse style="fill:#263238;" cx="194.736" cy="139.039" rx="3.034" ry="3.214"/>
				</g>
			</g>
			<g>
				<g>
					<g>
						<g>
							<path style="fill:#263238;" d="M366.79,179.186c0,0.176-10.155,0.318-22.68,0.318c-12.529,0-22.682-0.143-22.682-0.318
								c0-0.176,10.153-0.318,22.682-0.318C356.634,178.868,366.79,179.01,366.79,179.186z"/>
						</g>
					</g>
				</g>
				<g>
					<g>
						<g>
							<path style="fill:#263238;" d="M427.126,179.186c0,0.176-10.155,0.318-22.68,0.318c-12.529,0-22.682-0.143-22.682-0.318
								c0-0.176,10.153-0.318,22.682-0.318C416.971,178.868,427.126,179.01,427.126,179.186z"/>
						</g>
					</g>
				</g>
				<g>
					<g>
						<g>
							<path style="fill:#263238;" d="M487.463,179.186c0,0.176-10.155,0.318-22.68,0.318c-12.529,0-22.682-0.143-22.682-0.318
								c0-0.176,10.153-0.318,22.682-0.318C477.308,178.868,487.463,179.01,487.463,179.186z"/>
						</g>
					</g>
				</g>
				<g>
					<g>
						<g>
							<path style="fill:#263238;" d="M548.335,179.186c0,0.176-10.155,0.318-22.68,0.318c-12.529,0-22.682-0.143-22.682-0.318
								c0-0.176,10.153-0.318,22.682-0.318C538.18,178.868,548.335,179.01,548.335,179.186z"/>
						</g>
					</g>
				</g>
			</g>
			<g>
				<g>
					<g>
						<path style="fill:#E0E0E0;" d="M582.144,392.446c0,0.185-36.421,0.335-81.339,0.335c-44.933,0-81.346-0.15-81.346-0.335
							c0-0.185,36.413-0.335,81.346-0.335C545.723,392.112,582.144,392.262,582.144,392.446z"/>
					</g>
				</g>
			</g>
			<g>
				<g>
					<g>
						<path style="fill:#E0E0E0;" d="M582.144,402.309c0,0.185-36.421,0.335-81.339,0.335c-44.933,0-81.346-0.15-81.346-0.335
							c0-0.185,36.413-0.335,81.346-0.335C545.723,401.974,582.144,402.124,582.144,402.309z"/>
					</g>
				</g>
			</g>
			<g>
				<g>
					<g>
						<path style="fill:#263238;" d="M492.021,366.993c0,0.17-15.966,0.307-35.656,0.307c-19.697,0-35.66-0.138-35.66-0.307
							c0-0.17,15.962-0.307,35.66-0.307C476.055,366.686,492.021,366.823,492.021,366.993z"/>
					</g>
				</g>
			</g>
			<g>
				<g>
					<g>
						<path style="fill:#263238;" d="M601.213,186.825c-0.002-0.038,0.385-0.02,1.083-0.192c0.682-0.184,1.719-0.609,2.609-1.695
							c0.436-0.537,0.835-1.23,1.037-2.067c0.232-0.827,0.161-1.783,0.161-2.825c-0.123-2.014,0.451-4.633-1.271-6.546
							c-0.781-0.931-1.946-1.589-3.228-1.686c-1.304-0.036-2.728,0.001-4.166-0.003c-2.895,0.009-5.984,0.019-9.233,0.029
							c-6.509,0.008-13.655,0.016-21.158,0.025c-1.779-0.014-3.466,1.115-4.238,2.75c-0.403,0.82-0.552,1.705-0.525,2.645
							c-0.001,0.953-0.002,1.899-0.003,2.836c0.011,0.952-0.064,1.865,0.166,2.689c0.2,0.843,0.636,1.6,1.188,2.215
							c0.562,0.608,1.263,1.055,2.012,1.305c0.752,0.256,1.537,0.225,2.365,0.227c6.493,0.026,12.345,0.049,17.28,0.068
							c4.88,0.042,8.846,0.077,11.65,0.101c1.336,0.025,2.394,0.045,3.167,0.06c0.332,0.013,0.602,0.023,0.824,0.032
							C601.117,186.803,601.213,186.814,601.213,186.825s-0.095,0.022-0.281,0.033c-0.221,0.008-0.492,0.019-0.824,0.032
							c-0.774,0.015-1.831,0.035-3.167,0.06c-2.803,0.024-6.77,0.059-11.65,0.101c-4.935,0.019-10.787,0.043-17.28,0.068
							c-0.791,0.002-1.681,0.042-2.53-0.241c-0.839-0.276-1.626-0.774-2.257-1.452c-0.621-0.685-1.111-1.534-1.34-2.479
							c-0.133-0.467-0.172-0.959-0.19-1.448c-0.001-0.465-0.002-0.932-0.003-1.401c-0.001-0.937-0.002-1.883-0.003-2.836
							c-0.034-0.966,0.134-2.029,0.586-2.933c0.865-1.841,2.768-3.114,4.77-3.098c7.503,0.009,14.649,0.017,21.158,0.025
							c3.249,0.01,6.339,0.02,9.233,0.029c1.454,0.016,2.824-0.011,4.203,0.041c1.405,0.12,2.67,0.855,3.509,1.876
							c0.844,1.021,1.292,2.307,1.305,3.524c-0.005,1.173-0.01,2.282-0.015,3.321c-0.016,1.02,0.042,2.02-0.221,2.906
							c-0.231,0.881-0.667,1.6-1.138,2.15c-0.96,1.111-2.051,1.508-2.758,1.656C601.598,186.894,601.213,186.825,601.213,186.825z"
							/>
					</g>
				</g>
			</g>
			<g>
				<g>
					<path style="fill:#E0E0E0;" d="M552.919,310.507H429.312c-4.754,0-8.607-3.854-8.607-8.607v-11.667
						c0-4.753,3.853-8.607,8.607-8.607h123.607c4.753,0,8.607,3.854,8.607,8.607V301.9
						C561.526,306.653,557.673,310.507,552.919,310.507z"/>
				</g>
			</g>
			<g>
				<g>
					<ellipse style="fill:#E0E0E0;" cx="201.958" cy="179.494" rx="10.303" ry="10.914"/>
				</g>
			</g>
			<g>
				<g>
					<g>
						<path style="fill:#263238;" d="M561.526,355.103c0,0.17-31.526,0.307-70.407,0.307c-38.894,0-70.414-0.137-70.414-0.307
							c0-0.17,31.52-0.307,70.414-0.307C530,354.796,561.526,354.934,561.526,355.103z"/>
					</g>
				</g>
			</g>
		</g>
		<g>
			<g>
				<path style="fill:#263238;" d="M158.736,126.231c2.096-0.001,190.034-0.097,464.989-0.236l0.237,0v0.237
					c0.007,100.996,0.015,214.757,0.024,334.678v0.038v0.26h-0.26c-173.972-0.018-334.951-0.035-464.989-0.049h-0.212l0-0.212
					C158.653,257.797,158.735,127.975,158.736,126.231c0.001,1.742,0.083,131.565,0.212,334.716l-0.212-0.211
					c130.038-0.014,291.017-0.031,464.989-0.049l-0.26,0.26v-0.038c0.009-119.921,0.017-233.682,0.024-334.678l0.236,0.236
					C348.77,126.327,160.83,126.232,158.736,126.231z"/>
			</g>
		</g>
	</g>
</g>
<g id="Character">
	<g>
		<g>
			<g>
				<g>
					
						<rect x="158.884" y="214.749" transform="matrix(-1 -1.224647e-16 1.224647e-16 -1 552.6746 649.5311)" style="fill:#FF725E;" width="234.907" height="220.033"/>
				</g>
				<g>
					<g>
						<path style="fill:#263238;" d="M377.857,421.32c-0.002-1.885-0.089-76.492-0.223-191.59l0.222,0.222
							c-59.368,0.011-129.961,0.024-205.474,0.038h-0.019l0.26-0.26c-0.012,69.879-0.023,135.535-0.033,191.59l-0.228-0.228
							C295.257,421.229,375.898,421.318,377.857,421.32c-1.958,0.002-82.601,0.092-205.494,0.228l-0.228,0v-0.228
							c-0.01-56.055-0.021-121.711-0.033-191.59v-0.26h0.261h0.019c75.513,0.014,146.107,0.027,205.474,0.038l0.223,0l0,0.223
							C377.946,344.829,377.86,419.437,377.857,421.32z"/>
					</g>
				</g>
				<g>
					<g>
						<path style="fill:#263238;" d="M377.857,229.73c0,0-0.16,0.187-0.492,0.535c-0.346,0.357-0.839,0.867-1.483,1.533
							c-1.324,1.351-3.255,3.322-5.738,5.858c-2.492,2.543-5.551,5.645-9.132,9.217c-3.577,3.576-7.632,7.666-12.171,12.13
							c-9.039,8.968-19.892,19.555-32.019,31.232c-12.143,11.66-25.57,24.4-39.765,37.664
							c-28.416,26.519-54.477,50.155-73.408,67.187c-9.478,8.486-17.15,15.355-22.467,20.115c-2.655,2.354-4.719,4.185-6.135,5.439
							c-0.696,0.61-1.23,1.077-1.604,1.405c-0.363,0.314-0.558,0.465-0.558,0.465s0.171-0.178,0.523-0.505
							c0.366-0.336,0.888-0.817,1.57-1.443c1.4-1.272,3.442-3.126,6.069-5.512c5.291-4.789,12.924-11.7,22.355-20.238
							c18.867-17.101,44.887-40.779,73.299-67.295c14.193-13.262,27.628-25.99,39.788-37.629
							c12.144-11.656,23.022-22.215,32.093-31.148c4.528-4.472,8.624-8.518,12.224-12.074c3.581-3.566,6.667-6.638,9.194-9.154
							c2.514-2.505,4.468-4.453,5.807-5.789c0.66-0.65,1.166-1.148,1.52-1.496C377.671,229.892,377.857,229.73,377.857,229.73z"/>
					</g>
				</g>
				<g>
					<g>
						<path style="fill:#263238;" d="M376.046,420.813c-0.098,0.105-45.778-42.589-102.014-95.347
							c-56.256-52.776-101.766-95.631-101.667-95.736c0.098-0.105,45.768,42.58,102.024,95.356
							C330.624,377.845,376.144,420.708,376.046,420.813z"/>
					</g>
				</g>
			</g>
			<g style="opacity:0.3;">
				<g>
					<path d="M158.44,280.108c13.211-1.498,23.609-13.237,26.906-26.118c3.297-12.88,0.705-26.568-3.541-39.167h-22.921
						L158.44,280.108z"/>
				</g>
			</g>
			<g style="opacity:0.3;">
				<g>
					<path d="M321.464,232.127c0.769,3.499,4.331,6.154,7.904,5.89c1.083,2.681,4.039,4.475,6.918,4.199
						c2.878-0.276,5.439-2.6,5.993-5.438c1.861,1.689,5.002,0.651,6.63-1.264c1.628-1.915,2.318-4.438,3.574-6.616
						c1.483-2.573,3.729-4.618,5.419-7.059c1.69-2.442,2.812-5.632,1.663-8.37h-36.173L321.464,232.127z"/>
				</g>
			</g>
			<g>
				<g>
					<g>
						<g>
							<path style="fill:#DB8A76;" d="M301.137,214.966c-0.589-2.565-1.088-5.248-0.475-7.807c0.613-2.559,2.63-4.961,5.251-5.203
								c2.399-0.222,4.572,1.334,6.392,2.912c1.82,1.578,3.71,3.342,6.096,3.678c1.774,0.25,3.563-0.341,5.354-0.294
								c1.791,0.047,3.846,1.156,3.852,2.948c0.004,1.192-0.951,2.217-2.052,2.673c-1.101,0.456-2.406,0.933-3.597,0.931
								C314.736,214.796,308.359,214.974,301.137,214.966"/>
						</g>
					</g>
				</g>
				<g>
					<g>
						<g>
							<g>
								<path style="fill:#DB8A76;" d="M364.43,207.406c0,0-8.689,14.417-11.091,14.216c-2.402-0.202-4.913-3.092-4.913-3.092
									s-2.69,14.771-12.585,14.276c0,0-2.829,4.005-6.14,3.541c-3.31-0.464-2.883-4.67-2.883-4.67s-6.689,4.76-6.98-2.409
									c-0.292-7.17,2.063-22.825,2.063-22.825s3.628-6.431,6.377-5.047c2.749,1.384,3.731,3.439,3.731,3.439
									s3.755-3.306,7.313-4.118c3.558-0.813,4.886,2.425,4.886,2.425s6.053-5.673,8.254-3.049c2.202,2.624,0.47,4.191,0.47,4.191
									s6.761-2.968,8.925-1.261C364.022,204.729,364.43,207.406,364.43,207.406z"/>
							</g>
						</g>
					</g>
					<g>
						<g>
							<g>
								<g>
									<path style="fill:#A45B4A;" d="M326.818,231.677c-0.37-0.071,0.506-6.206,1.956-13.699
										c1.45-7.496,2.925-13.513,3.294-13.441c0.369,0.071-0.507,6.204-1.956,13.7
										C328.662,225.73,327.187,231.749,326.818,231.677z"/>
								</g>
							</g>
						</g>
					</g>
					<g>
						<g>
							<g>
								<g>
									<path style="fill:#A45B4A;" d="M348.426,218.53c-0.342-0.098,0.158-3.397,1.25-7.401c1.09-4.024,2.765-7.03,3.106-6.86
										c0.337,0.162-0.725,3.283-1.795,7.23C349.91,215.446,348.806,218.638,348.426,218.53z"/>
								</g>
							</g>
						</g>
					</g>
					<g>
						<g>
							<g>
								<g>
									<path style="fill:#A45B4A;" d="M335.692,232.895c-0.362-0.103,1.252-6.848,3.603-15.063
										c2.352-8.218,4.552-14.793,4.914-14.69c0.362,0.103-1.251,6.847-3.604,15.065
										C338.253,226.421,336.054,232.998,335.692,232.895z"/>
								</g>
							</g>
						</g>
					</g>
				</g>
			</g>
			<g style="opacity:0.3;">
				<g>
					<path d="M271.851,410.563c3.177,4.097,2.535,10.64-1.378,14.041c-1.368,1.189-3.271,2.654-2.598,4.337
						c0.434,1.087,1.742,1.479,2.883,1.737c5.763,1.301,11.815,2.904,17.578,4.205c-10.717,3.452-22.812,3.128-33.517-0.363
						c-2.544-0.83-5.432-2.373-5.607-5.043c-0.159-2.432,2.045-4.286,4.028-5.702c5.671-4.05,11.343-8.101,17.014-12.151"/>
				</g>
			</g>
		</g>
		<g>
			<g>
				<g>
					<g>
						<g>
							<path style="fill:#DB8A76;" d="M102.338,279.431l-6.325-72.928c-3.729-23.131,6.623-44.58,29.848-47.668l2.163-0.16
								c21.771-1.611,41.129,13.764,44.484,35.335c3.121,20.063,6.311,42.268,6.978,53.106c1.382,22.44-20.785,27.586-20.785,27.586
								l0.335,10.159c0,0-13.347,10.151-30.165,10.145C110.753,295,102.338,279.431,102.338,279.431z"/>
						</g>
					</g>
					<g>
						<g>
							<g>
								<g>
									<path style="fill:#A45B4A;" d="M158.884,274.656c0,0-14.254,1.92-30.013-6.425c0,0,7.79,15.674,30.012,12L158.884,274.656z
										"/>
								</g>
							</g>
						</g>
					</g>
					<g>
						<g>
							<g>
								<g>
									<g>
										<g>
											<g>
												<path style="fill:#263238;" d="M168.706,213.766c0.186,1.686-1.09,3.233-2.848,3.459
													c-1.755,0.224-3.329-0.956-3.514-2.642c-0.185-1.686,1.09-3.235,2.845-3.461
													C166.946,210.896,168.521,212.08,168.706,213.766z"/>
											</g>
										</g>
									</g>
								</g>
							</g>
						</g>
					</g>
					<g>
						<g>
							<g>
								<g>
									<g>
										<g>
											<g>
												<g>
													<path style="fill:#263238;" d="M168.499,205.336c-0.366,0.447-2.924-1.169-6.369-0.905
														c-3.445,0.214-5.842,2.174-6.246,1.779c-0.198-0.173,0.151-0.957,1.192-1.84c1.025-0.879,2.816-1.791,4.963-1.941
														c2.147-0.147,4.011,0.51,5.108,1.242C168.267,204.406,168.681,205.134,168.499,205.336z"/>
												</g>
											</g>
										</g>
									</g>
								</g>
							</g>
						</g>
					</g>
					<g>
						<g>
							<g>
								<g>
									<g>
										<g>
											<g>
												<path style="fill:#263238;" d="M137.177,216.324c0.185,1.686-1.091,3.233-2.848,3.458
													c-1.754,0.225-3.329-0.955-3.514-2.643c-0.185-1.686,1.091-3.235,2.845-3.46
													C135.417,213.453,136.992,214.637,137.177,216.324z"/>
											</g>
										</g>
									</g>
								</g>
							</g>
						</g>
					</g>
					<g>
						<g>
							<g>
								<g>
									<g>
										<g>
											<g>
												<g>
													<path style="fill:#263238;" d="M134.681,208.483c-0.367,0.447-2.928-1.168-6.37-0.904
														c-3.444,0.214-5.842,2.174-6.247,1.779c-0.197-0.173,0.147-0.956,1.193-1.839c1.025-0.879,2.815-1.791,4.962-1.941
														c2.147-0.147,4.011,0.51,5.109,1.241C134.445,207.553,134.862,208.282,134.681,208.483z"/>
												</g>
											</g>
										</g>
									</g>
								</g>
							</g>
						</g>
					</g>
					<g>
						<g>
							<g>
								<g>
									<g>
										<g>
											<g>
												<path style="fill:#263238;" d="M149.075,233.109c-0.031-0.195,2.083-0.724,5.521-1.424
													c0.873-0.155,1.693-0.392,1.797-1.004c0.16-0.651-0.278-1.572-0.78-2.564c-0.984-2.067-2.015-4.235-3.097-6.507
													c-4.319-9.271-7.514-16.92-7.14-17.091c0.376-0.17,4.18,7.205,8.498,16.476c1.044,2.288,2.042,4.469,2.991,6.555
													c0.407,0.975,1.063,2.067,0.712,3.419c-0.188,0.675-0.799,1.201-1.351,1.393c-0.551,0.214-1.046,0.26-1.479,0.318
													C151.268,233.128,149.103,233.303,149.075,233.109z"/>
											</g>
										</g>
									</g>
								</g>
							</g>
						</g>
					</g>
					<g>
						<g>
							<g>
								<g>
									<g>
										<g>
											<g>
												<path style="fill:#263238;" d="M139.112,236.242c0.558-0.074,0.842,3.665,4.239,6.083
													c3.393,2.427,7.348,1.712,7.416,2.232c0.069,0.231-0.834,0.792-2.514,0.963c-1.646,0.179-4.095-0.173-6.174-1.652
													c-2.073-1.484-3.073-3.594-3.314-5.118C138.505,237.196,138.854,236.239,139.112,236.242z"/>
											</g>
										</g>
									</g>
								</g>
							</g>
						</g>
					</g>
					<g>
						<g>
							<g>
								<path style="fill:#263238;" d="M134.572,194.915c-0.271,0.962-3.743,0.772-7.749,1.559c-4.022,0.706-7.194,2.13-7.793,1.33
									c-0.269-0.385,0.234-1.308,1.485-2.312c1.239-1.002,3.26-2.017,5.667-2.466c2.407-0.445,4.657-0.224,6.174,0.266
									C133.884,193.779,134.686,194.46,134.572,194.915z"/>
							</g>
						</g>
					</g>
					<g>
						<g>
							<g>
								<path style="fill:#263238;" d="M166.496,195.458c-0.548,0.827-2.982,0.19-5.839,0.364c-2.863,0.073-5.232,0.916-5.848,0.138
									c-0.273-0.379,0.049-1.191,1.05-2.01c0.986-0.815,2.682-1.547,4.648-1.633c1.965-0.083,3.717,0.501,4.77,1.229
									C166.344,194.275,166.735,195.057,166.496,195.458z"/>
							</g>
						</g>
					</g>
					<g>
						<g>
							<path style="fill:#263238;" d="M169.591,183.887c0,0-6.952-13.603-13.964-16.379c-8.49-3.36-11.353,5.897-19.325,4.292
								c-7.972-1.606-16.078-4.833-23.614,1.795c-8.248,7.255-3.812,11.589-3.616,21.577c0.795,40.493-5.726,52.443-9.227,33.601
								c-0.383-2.064-6.282-3.292-7.789-12.022c-1.953-11.32-3.416-25.133-1.469-33.413c1.641-6.979,5.181-11.979,11.77-17.69
								c10.401-9.015,25.509-10.31,35.853-10.036C148.555,155.886,169.226,166.238,169.591,183.887z"/>
						</g>
					</g>
					<g>
						<g>
							<path style="fill:#DB8A76;" d="M101.229,228.057c-0.397-3.45-3.581-5.961-7.004-5.379c-4.152,0.707-8.629,3.426-7.714,12.045
								c1.623,15.291,16.641,10.508,16.62,10.066C103.117,244.49,101.965,234.451,101.229,228.057z"/>
						</g>
					</g>
					<g>
						<g>
							<path style="fill:#A45B4A;" d="M99.193,239.39c-0.073-0.042-0.247,0.215-0.675,0.469c-0.418,0.247-1.158,0.466-1.987,0.252
								c-1.678-0.421-3.311-2.842-3.677-5.59c-0.187-1.387-0.036-2.743,0.341-3.893c0.348-1.168,0.988-2.026,1.786-2.257
								c0.789-0.273,1.417,0.152,1.65,0.563c0.25,0.406,0.186,0.721,0.27,0.739c0.047,0.034,0.301-0.292,0.111-0.91
								c-0.096-0.297-0.313-0.638-0.703-0.894c-0.399-0.26-0.954-0.354-1.514-0.233c-1.17,0.207-2.117,1.404-2.531,2.666
								c-0.479,1.274-0.681,2.802-0.471,4.36c0.425,3.071,2.309,5.787,4.587,6.191c1.105,0.167,1.968-0.253,2.394-0.663
								C99.205,239.763,99.249,239.413,99.193,239.39z"/>
						</g>
					</g>
				</g>
				<g>
					<path style="fill:#263238;" d="M99.332,198.338c2.091,1.212,4.298,2.457,6.714,2.517c2.416,0.06,5.057-1.521,5.286-3.927
						c0.103-1.081-0.25-2.299,0.391-3.176c0.764-1.046,2.331-0.852,3.626-0.811c4.491,0.143,8.821-3.346,9.636-7.765
						c1.262,1.618,3.909,1.348,5.547,0.112c1.638-1.236,2.611-3.133,3.843-4.774c1.232-1.641,3.019-3.159,5.066-3.021
						c1.145,0.077,2.256,0.674,3.388,0.488c2-0.328,2.808-2.758,2.965-4.778c0.157-2.02,0.222-4.369,1.846-5.581
						c1.505-1.123,3.596-0.693,5.469-0.557c1.873,0.136,4.234-0.476,4.574-2.323c0.179-0.969-0.303-1.939-0.891-2.73
						c-2.665-3.581-7.993-4.865-11.996-2.891c-1.874-4.954-6.902-8.545-12.197-8.711c-5.295-0.166-10.537,3.104-12.718,7.932
						c-3.457-2.7-8.256-3.585-12.449-2.297c-4.193,1.288-7.666,4.715-9.011,8.89c-3.801-0.705-7.944,1.051-10.081,4.273
						c-2.137,3.222-2.142,7.722-0.014,10.949c-2.639,1.778-4.795,4.69-4.618,7.867c0.178,3.177,3.502,6.109,6.502,5.048
						c-1.054,2.562,0.201,5.84,2.696,7.043c2.495,1.203,5.842,0.143,7.189-2.277"/>
				</g>
				<g>
					<g>
						<path style="fill:#455A64;" d="M146.269,163.548c0.013,0,0.018,0.095,0.017,0.281c-0.007,0.185,0.003,0.465-0.037,0.826
							c-0.089,0.718-0.296,1.788-0.894,3.036c-0.605,1.231-1.576,2.672-3.131,3.875c-1.52,1.213-3.655,2.207-6.146,2.255
							l0.234-0.359c0.573,1.275,0.559,2.859,0.006,4.255c-0.517,1.417-1.401,2.703-2.344,3.963c-0.486,0.607-0.895,1.31-1.585,1.886
							c-0.672,0.554-1.5,0.907-2.363,1.081c-1.712,0.349-3.702-0.042-5.064-1.403l0.561-0.206c-0.164,3.076-1.672,6.253-4.288,8.315
							c-1.379,1.161-3.134,1.938-4.911,2.022c-1.776,0.114-3.463-0.285-5.041-0.722l0.396-0.211
							c-0.683,1.967-1.828,3.685-3.278,4.999c-1.42,1.309-3.38,2.161-5.232,1.849c-3.674-0.498-6.297-3.329-6.99-6.127l0.359,0.136
							c-1.723,1.111-3.643,1.347-5.21,1.163c-1.589-0.17-2.868-0.76-3.795-1.366c-0.93-0.619-1.502-1.284-1.851-1.746
							c-0.324-0.484-0.463-0.755-0.447-0.764c0.073-0.069,0.594,1.127,2.438,2.292c0.918,0.554,2.167,1.086,3.692,1.214
							c1.506,0.144,3.321-0.124,4.91-1.184l0.276-0.184l0.084,0.32c0.682,2.607,3.201,5.243,6.605,5.667
							c1.678,0.265,3.399-0.494,4.745-1.734c1.353-1.238,2.444-2.894,3.076-4.741l0.1-0.292l0.297,0.081
							c1.553,0.426,3.181,0.796,4.821,0.685c1.644-0.086,3.219-0.778,4.535-1.879c2.471-1.951,3.887-4.924,4.057-7.837l0.043-0.732
							l0.519,0.526c1.15,1.166,2.933,1.548,4.472,1.238c0.773-0.151,1.509-0.462,2.095-0.94c0.573-0.459,1.002-1.155,1.495-1.768
							c0.944-1.24,1.804-2.479,2.299-3.797c0.528-1.306,0.544-2.698,0.05-3.855l-0.152-0.357l0.387-0.003
							c2.349-0.016,4.409-0.925,5.897-2.067c1.522-1.129,2.497-2.501,3.124-3.679C146.322,165.141,146.156,163.521,146.269,163.548z
							"/>
					</g>
				</g>
			</g>
			<g>
				<g>
					<path style="fill:#263238;" d="M154.587,218.033c0.084-0.031-0.585-1.221-1.047-3.575c-0.449-2.31-0.512-5.991,1.473-9.802
						c0.991-1.872,2.462-3.76,4.503-5.206c2.033-1.424,4.561-2.536,7.363-2.757c1.392-0.151,2.841-0.07,4.275,0.221
						c1.439,0.269,2.868,0.772,4.2,1.51c2.7,1.416,4.976,3.803,6.388,6.705c1.359,2.929,1.773,6.202,1.165,9.191
						c-0.269,1.498-0.782,2.924-1.482,4.21c-0.681,1.295-1.534,2.471-2.53,3.454c-1.942,2.032-4.401,3.29-6.79,3.966
						c-2.411,0.669-4.803,0.616-6.88,0.202c-4.208-0.869-7.021-3.243-8.529-5.05C155.164,219.257,154.665,217.988,154.587,218.033
						c-0.019,0.009,0.121,0.311,0.407,0.882c0.136,0.29,0.32,0.639,0.586,1.023c0.253,0.393,0.536,0.854,0.937,1.313
						c1.475,1.879,4.305,4.367,8.621,5.316c2.13,0.453,4.598,0.533,7.095-0.136c2.475-0.676,5.028-1.962,7.055-4.059
						c1.039-1.015,1.93-2.231,2.642-3.573c0.732-1.333,1.27-2.812,1.554-4.368c0.639-3.104,0.215-6.514-1.2-9.559
						c-1.467-3.019-3.842-5.501-6.652-6.965c-1.386-0.762-2.872-1.28-4.367-1.554c-1.49-0.295-2.995-0.372-4.438-0.208
						c-2.906,0.247-5.515,1.414-7.603,2.905c-2.097,1.512-3.593,3.476-4.588,5.413c-1.991,3.945-1.851,7.711-1.325,10.042
						c0.103,0.6,0.282,1.111,0.426,1.556c0.129,0.45,0.284,0.813,0.423,1.101C154.423,217.742,154.569,218.042,154.587,218.033z"/>
				</g>
			</g>
			<g>
				<g>
					<path style="fill:#263238;" d="M115.057,220.842c0.084-0.031-0.585-1.221-1.048-3.575c-0.449-2.31-0.512-5.99,1.473-9.802
						c0.991-1.872,2.461-3.76,4.503-5.206c2.033-1.424,4.561-2.536,7.363-2.757c1.392-0.151,2.841-0.07,4.275,0.22
						c1.439,0.269,2.868,0.772,4.2,1.51c2.7,1.416,4.976,3.803,6.389,6.705c1.36,2.929,1.773,6.202,1.165,9.191
						c-0.269,1.498-0.782,2.924-1.482,4.21c-0.681,1.295-1.534,2.471-2.53,3.454c-1.942,2.033-4.401,3.29-6.79,3.966
						c-2.411,0.669-4.803,0.617-6.88,0.202c-4.208-0.869-7.021-3.242-8.529-5.05C115.633,222.067,115.134,220.797,115.057,220.842
						c-0.019,0.009,0.121,0.311,0.406,0.882c0.136,0.29,0.32,0.639,0.587,1.023c0.253,0.393,0.536,0.854,0.937,1.313
						c1.475,1.879,4.305,4.367,8.621,5.316c2.13,0.453,4.598,0.533,7.095-0.136c2.475-0.676,5.028-1.962,7.055-4.059
						c1.038-1.015,1.93-2.231,2.642-3.573c0.732-1.333,1.27-2.812,1.554-4.369c0.639-3.104,0.215-6.514-1.2-9.559
						c-1.467-3.019-3.842-5.501-6.652-6.965c-1.386-0.762-2.872-1.28-4.367-1.554c-1.49-0.295-2.995-0.372-4.438-0.208
						c-2.906,0.247-5.515,1.414-7.603,2.905c-2.097,1.513-3.593,3.476-4.588,5.414c-1.991,3.945-1.851,7.711-1.325,10.042
						c0.103,0.601,0.282,1.111,0.426,1.556c0.129,0.45,0.284,0.813,0.423,1.101C114.892,220.552,115.038,220.851,115.057,220.842z"
						/>
				</g>
			</g>
			<g>
				<g>
					<path style="fill:#263238;" d="M143.836,210.836c0.095,0.157,1.912-1.273,4.617-1.415c2.702-0.201,4.685,0.987,4.759,0.82
						c0.038-0.058-0.393-0.445-1.243-0.822c-0.844-0.378-2.128-0.684-3.554-0.596c-1.425,0.093-2.66,0.56-3.449,1.041
						C144.169,210.344,143.79,210.783,143.836,210.836z"/>
				</g>
			</g>
			<g>
				<g>
					<path style="fill:#263238;" d="M99.78,224.027c0.078,0.146,3.253-1.395,7.091-3.441c3.839-2.047,6.888-3.824,6.81-3.97
						c-0.078-0.146-3.253,1.394-7.092,3.441C102.751,222.103,99.702,223.881,99.78,224.027z"/>
				</g>
			</g>
		</g>
		<g>
			<g>
				<polygon style="fill:#455A64;" points="157.697,460.947 187.031,461.211 187.031,440.704 157.697,430.949 				"/>
			</g>
			<g>
				<path style="fill:#455A64;" d="M102.338,279.431c0,0-21.363,11.877-30.199,19.535c-8.836,7.658-18.767,54.821-18.767,54.821
					l4.135,73.95l-6.339,33.21h109.091l-1.223-176.086c0,0-13.679,10-29.122,10.131
					C120.474,295.072,110.374,291.678,102.338,279.431z"/>
			</g>
			<g style="opacity:0.3;">
				<g>
					<path d="M59.187,368.715c2.336,14.788,6.111,29.347,11.256,43.406c0.692,1.89,1.473,3.863,3.039,5.126
						c0.973,0.784,2.174,1.229,3.2,1.943c2.002,1.393,3.166,3.675,4.187,5.889c2.459,5.331,4.567,10.846,7.569,15.89
						c3.003,5.044,7.032,9.681,12.32,12.229c5.749,2.77,12.38,2.829,18.762,2.833c22.893,0.015,44.617,0.03,67.509,0.045
						c0-0.502,0-9.621,0-9.621c-2.496-2.226-6.755-2.545-9.984-3.418c-8.363-2.261-16.725-4.523-25.087-6.784
						c-11.983-3.24-24.151-6.559-34.743-13.031c-22.782-13.922-35.375-40.543-57.906-54.869"/>
				</g>
			</g>
			<g>
				<g>
					<path style="fill:#FFFFFF;" d="M158.747,327.629c0.008,0.016-0.133,0.11-0.41,0.275c-0.333,0.19-0.737,0.42-1.225,0.698
						c-1.068,0.599-2.63,1.435-4.572,2.443c-3.885,2.018-9.315,4.687-15.416,7.409c-6.105,2.719-11.721,4.973-15.819,6.512
						c-2.049,0.771-3.715,1.373-4.874,1.767c-0.533,0.177-0.975,0.324-1.338,0.444c-0.308,0.096-0.472,0.139-0.479,0.122
						c-0.006-0.017,0.146-0.092,0.442-0.22c0.354-0.145,0.784-0.322,1.304-0.536c1.211-0.483,2.836-1.132,4.811-1.92
						c4.06-1.626,9.645-3.93,15.74-6.645c6.092-2.717,11.539-5.329,15.462-7.262c1.906-0.941,3.475-1.716,4.644-2.294
						c0.506-0.244,0.925-0.445,1.27-0.611C158.581,327.676,158.739,327.613,158.747,327.629z"/>
				</g>
			</g>
			<g>
				<g>
					<path style="fill:#FFFFFF;" d="M157.549,313.251c0.008,0.016-0.149,0.12-0.456,0.304c-0.361,0.208-0.809,0.466-1.357,0.782
						c-1.182,0.672-2.91,1.613-5.058,2.751c-4.295,2.277-10.296,5.301-17.033,8.408c-6.741,3.105-12.939,5.703-17.46,7.489
						c-2.26,0.894-4.098,1.596-5.377,2.059c-0.595,0.211-1.083,0.384-1.476,0.523c-0.339,0.114-0.521,0.166-0.527,0.15
						c-0.006-0.017,0.162-0.102,0.489-0.247c0.383-0.163,0.859-0.366,1.439-0.614c1.323-0.551,3.121-1.299,5.312-2.211
						c4.482-1.872,10.648-4.52,17.381-7.621c6.729-3.103,12.747-6.071,17.082-8.262c2.116-1.073,3.853-1.954,5.131-2.602
						c0.566-0.281,1.029-0.51,1.402-0.695C157.367,313.309,157.54,313.236,157.549,313.251z"/>
				</g>
			</g>
		</g>
		<g>
			<g>
				<path style="fill:#DB8A76;" d="M234.867,428.969l-101.229-20.871l-34.426-86.605l-41.706,19.279
					c0,0,31.245,94.274,41.706,104.123c10.46,9.848,137.543,7.963,137.543,7.963L234.867,428.969z"/>
			</g>
			<g>
				<path style="fill:#455A64;" d="M103.131,324.766l26.784,55.888l-54.592,25.392l-21.95-52.258c0,0-13.847-40.892,18.767-54.821
					C89.669,291.479,103.131,324.766,103.131,324.766z"/>
			</g>
			<g>
				<g>
					<path style="fill:#263238;" d="M70.862,299.84c-0.009-0.035,0.512-0.168,1.467-0.38c0.477-0.105,1.06-0.254,1.756-0.29
						c0.351-0.032,0.721-0.066,1.11-0.102c0.198-0.018,0.4-0.035,0.607-0.054c0.209,0.005,0.423,0.01,0.641,0.015
						c0.876,0.028,1.842,0.009,2.86,0.198c0.509,0.085,1.046,0.118,1.579,0.254c0.535,0.135,1.083,0.275,1.645,0.417
						c2.222,0.671,4.575,1.721,6.814,3.198c2.22,1.508,4.093,3.261,5.64,4.984c0.741,0.891,1.46,1.725,2.026,2.587
						c0.617,0.826,1.104,1.652,1.544,2.408c0.47,0.739,0.784,1.469,1.096,2.088c0.32,0.616,0.543,1.171,0.71,1.63
						c0.35,0.912,0.526,1.42,0.493,1.432c-0.109,0.046-0.822-2.001-2.616-4.962c-0.455-0.736-0.954-1.54-1.578-2.344
						c-0.574-0.84-1.295-1.652-2.035-2.521c-1.543-1.678-3.393-3.39-5.571-4.87c-2.197-1.449-4.493-2.488-6.662-3.171
						c-0.549-0.147-1.084-0.29-1.606-0.43c-0.52-0.142-1.046-0.181-1.543-0.274c-0.996-0.205-1.942-0.206-2.803-0.257
						c-0.215-0.011-0.425-0.023-0.631-0.033c-0.204,0.012-0.403,0.023-0.598,0.035c-0.384,0.021-0.75,0.041-1.097,0.061
						c-0.689,0.008-1.27,0.126-1.749,0.2C71.407,299.808,70.871,299.874,70.862,299.84z"/>
				</g>
			</g>
			<g>
				<path style="fill:#DB8A76;" d="M307.624,434.782c0,0,0.403,1.625-2.788,5.686c0.36,2.357-2.135,5.326-3.491,5.988
					c0,0,0.545,3.574-6.997,5.604c-7.542,2.031-34.808,3.191-34.808,3.191l-26.976-2.835V430.96l16.534-14.287l22.335-6.962
					c0,0,2.611,6.091-2.901,9.862c-3.745,2.563-7.759,4.723-9.946,5.845c-1.022,0.524-1.657,1.572-1.657,2.721l0,0
					c0,1.436,0.997,2.678,2.398,2.99l17.348,3.717L307.624,434.782"/>
			</g>
			<g>
				<g>
					<path style="fill:#A45B4A;" d="M270.258,449.417c0.005-0.036,0.462-0.017,1.283,0.048c0.82,0.072,2.009,0.151,3.477,0.217
						c2.935,0.138,7.004,0.125,11.459-0.373c4.455-0.507,8.425-1.4,11.256-2.189c1.416-0.392,2.558-0.734,3.341-0.986
						c0.786-0.246,1.227-0.366,1.24-0.333c0.013,0.034-0.405,0.218-1.173,0.524c-0.765,0.312-1.894,0.709-3.305,1.148
						c-2.819,0.883-6.81,1.842-11.301,2.353c-4.49,0.502-8.594,0.456-11.539,0.223c-1.473-0.115-2.662-0.25-3.478-0.384
						C270.701,449.539,270.253,449.452,270.258,449.417z"/>
				</g>
			</g>
			<g>
				<g>
					<path style="fill:#A45B4A;" d="M272.307,444.319c0.005-0.036,0.469-0.017,1.302,0.048c0.832,0.072,2.039,0.147,3.53,0.205
						c2.98,0.123,7.11,0.064,11.629-0.479c4.519-0.553,8.546-1.474,11.419-2.28c1.437-0.4,2.596-0.748,3.391-1.005
						c0.797-0.25,1.245-0.373,1.258-0.34c0.013,0.034-0.411,0.221-1.191,0.531c-0.777,0.316-1.922,0.72-3.354,1.167
						c-2.861,0.901-6.907,1.887-11.46,2.444c-4.553,0.548-8.719,0.548-11.711,0.33c-1.497-0.105-2.705-0.237-3.533-0.372
						C272.758,444.441,272.303,444.354,272.307,444.319z"/>
				</g>
			</g>
			<g>
				<g>
					<path style="fill:#FFFFFF;" d="M108.73,336.39c0.008,0.016-0.166,0.117-0.502,0.294c-0.39,0.198-0.881,0.447-1.483,0.752
						c-1.356,0.674-3.21,1.596-5.473,2.722c-4.618,2.303-10.967,5.545-17.909,9.259c-6.942,3.719-13.161,7.206-17.638,9.773
						c-2.191,1.259-3.986,2.291-5.299,3.045c-0.588,0.332-1.067,0.602-1.448,0.817c-0.334,0.182-0.514,0.27-0.523,0.255
						c-0.009-0.015,0.152-0.133,0.469-0.344c0.368-0.237,0.83-0.535,1.398-0.901c1.219-0.775,3-1.867,5.218-3.19
						c4.433-2.65,10.629-6.192,17.578-9.914c6.948-3.718,13.33-6.911,17.993-9.131c2.33-1.113,4.227-1.989,5.548-2.574
						c0.619-0.27,1.124-0.489,1.525-0.664C108.535,336.443,108.723,336.374,108.73,336.39z"/>
				</g>
			</g>
			<g>
				<g>
					<path style="fill:#FFFFFF;" d="M101.11,323.372c0.008,0.016-0.16,0.119-0.487,0.301c-0.38,0.204-0.857,0.459-1.441,0.772
						c-1.319,0.695-3.119,1.643-5.315,2.8c-4.481,2.376-10.627,5.74-17.292,9.67c-6.664,3.936-12.58,7.691-16.826,10.465
						c-2.074,1.363-3.774,2.48-5.02,3.299c-0.556,0.36-1.01,0.654-1.372,0.888c-0.317,0.198-0.488,0.295-0.499,0.281
						c-0.01-0.015,0.141-0.141,0.439-0.367c0.347-0.256,0.783-0.576,1.317-0.969c1.148-0.835,2.832-2.012,4.931-3.439
						c4.198-2.855,10.092-6.666,16.765-10.607c6.674-3.936,12.858-7.254,17.386-9.548c2.264-1.148,4.108-2.054,5.394-2.655
						c0.602-0.277,1.093-0.504,1.485-0.684C100.919,323.428,101.102,323.356,101.11,323.372z"/>
				</g>
			</g>
			<g>
				<g>
					<path style="fill:#263238;" d="M103.611,325.693c0.007-0.003,0.056,0.084,0.148,0.258c0.099,0.194,0.23,0.451,0.396,0.778
						c0.352,0.713,0.853,1.729,1.498,3.035c1.302,2.68,3.18,6.547,5.534,11.395c4.701,9.77,11.303,23.488,18.953,39.386l0.104,0.217
						l-0.213,0.111c-6.76,3.529-14.209,7.085-21.958,10.688c-11.644,5.407-22.762,10.368-32.655,14.699l-0.218,0.095l-0.094-0.218
						c-5.786-13.446-10.678-24.816-14.136-32.85c-1.7-3.994-3.047-7.158-3.98-9.35c-0.446-1.068-0.792-1.898-1.037-2.485
						c-0.108-0.268-0.192-0.479-0.258-0.643c-0.056-0.145-0.081-0.22-0.075-0.223c0.006-0.003,0.043,0.067,0.111,0.207
						c0.075,0.16,0.17,0.365,0.293,0.628c0.261,0.58,0.63,1.4,1.105,2.456c0.961,2.179,2.35,5.325,4.102,9.296
						c3.5,8.016,8.452,19.36,14.309,32.775l-0.311-0.122c9.877-4.358,20.986-9.334,32.625-14.739
						c7.745-3.601,15.194-7.149,21.945-10.658l-0.109,0.328c-7.583-15.93-14.126-29.676-18.785-39.466
						c-2.299-4.875-4.132-8.763-5.403-11.458c-0.613-1.321-1.09-2.349-1.424-3.07c-0.15-0.335-0.268-0.598-0.358-0.797
						C103.641,325.789,103.604,325.696,103.611,325.693z"/>
				</g>
			</g>
		</g>
	</g>
</g>
<g id="Plant">
	<g>
		<g>
			<g>
				<g>
					<g>
						<g>
							<path style="fill:#FF725E;" d="M674.971,384.155c1.033-3.58,3.245-7.041,6.667-8.516c3.559-1.534,7.682-0.661,11.325,0.663
								c3.643,1.323,7.22,3.095,11.089,3.333c3.868,0.239,8.235-1.596,9.393-5.295c1.089-3.477-1.008-7.185-3.633-9.712
								c-5.516-5.309-13.804-7.561-21.248-5.774c-7.444,1.787-13.806,7.556-16.311,14.79"/>
						</g>
					</g>
				</g>
			</g>
		</g>
		<g>
			<g style="opacity:0.3;">
				<path d="M709.811,364.629c-5.515-5.309-13.803-7.561-21.247-5.774c-7.444,1.787-13.806,7.556-16.311,14.791l2.717,10.51
					c1.033-3.58,3.245-7.041,6.667-8.516c3.559-1.534,7.682-0.661,11.325,0.663c3.643,1.323,7.22,3.095,11.089,3.333
					c3.868,0.239,8.234-1.596,9.393-5.295C714.533,370.864,712.437,367.156,709.811,364.629z"/>
			</g>
			<g>
				<g>
					<g>
						<g>
							<g>
								<path style="fill:#FF725E;" d="M644.322,399.695c-5.676-5.392-5.392-14.778-2.561-22.076
									c2.831-7.298,9.01-12.902,15.912-16.596c13.379-7.16,30.104-7.702,43.919-1.423c-6.788,0.225-13.35,4.078-16.854,9.897
									c-3.111,5.166-3.802,11.435-6.371,16.89c-2.863,6.077-8.117,10.987-14.373,13.433
									C657.738,402.264,650.547,402.219,644.322,399.695"/>
							</g>
						</g>
					</g>
				</g>
			</g>
			<g>
				<g>
					<g>
						<g>
							<g>
								<path style="fill:#FF725E;" d="M641.594,367.302c-6.283-7.418-7.12-19.324-6.195-29.001
									c0.925-9.677,3.169-19.416,1.642-29.017c-0.904-5.688-3.111-11.118-3.857-16.829c-0.746-5.711,0.311-12.169,4.736-15.855
									c5.086-4.237,13.094-3.237,18.385,0.741c5.29,3.978,8.356,10.227,10.596,16.456c4.921,13.685,6.728,28.859,2.685,42.829
									c-4.043,13.969-13.529,26.46-27.447,30.676"/>
							</g>
						</g>
					</g>
				</g>
			</g>
			<g>
				<g>
					<g>
						<g>
							<g>
								<g>
									<path style="fill:#263238;" d="M638.578,428.16c-0.018,0-0.026-0.295-0.024-0.855c0.008-0.56,0-1.387,0.047-2.451
										c0.08-2.127,0.285-5.205,0.762-8.984c0.479-3.777,1.227-8.258,2.414-13.155c1.17-4.908,3.172-10.14,6.003-15.232
										c2.841-5.094,6.305-9.491,9.81-13.114c3.514-3.626,7.109-6.448,10.284-8.552c1.57-1.086,3.088-1.909,4.395-2.673
										c1.34-0.703,2.51-1.281,3.469-1.744c0.948-0.398,1.701-0.715,2.261-0.95c0.519-0.212,0.794-0.315,0.801-0.298
										c0.007,0.017-0.255,0.152-0.76,0.395c-0.548,0.257-1.286,0.602-2.215,1.037c-0.942,0.489-2.093,1.091-3.414,1.815
										c-1.287,0.784-2.784,1.625-4.331,2.724c-3.131,2.131-6.676,4.963-10.145,8.58c-3.46,3.615-6.885,7.985-9.701,13.036
										c-5.777,10.106-7.359,20.733-8.507,28.181c-0.522,3.761-0.782,6.826-0.924,8.946c-0.06,1.024-0.108,1.838-0.144,2.443
										C638.624,427.867,638.596,428.16,638.578,428.16z"/>
								</g>
							</g>
						</g>
					</g>
				</g>
			</g>
			<g>
				<g>
					<g>
						<g>
							<g>
								<g>
									<path style="fill:#FF725E;" d="M584.379,338.04c-11.626,7.016-11.59,13.4-9.648,19.426
										c1.941,6.026,9.077,10.213,14.993,7.956c3.344-1.276,5.767-4.182,7.835-7.103c2.069-2.92,4.013-6.047,6.913-8.145
										c2.9-2.098,7.103-2.9,10.016-0.821"/>
								</g>
							</g>
						</g>
					</g>
				</g>
				<g>
					<g style="opacity:0.3;">
						<path d="M584.379,338.04c-11.626,7.016-11.589,13.4-9.648,19.426c1.941,6.026,9.077,10.213,14.992,7.956
							c3.344-1.276,5.767-4.182,7.835-7.103c2.069-2.92,4.013-6.047,6.913-8.145c2.01-1.454,4.641-2.259,7.041-1.939L584.379,338.04
							z"/>
					</g>
					<g>
						<path d="M611.512,348.237l2.975,1.118C613.594,348.717,612.573,348.378,611.512,348.237z"/>
					</g>
				</g>
				<g>
					<g>
						<g>
							<g>
								<g>
									<path style="fill:#FF725E;" d="M575.675,345.732c3.039-4.2,10.549-5.417,15.292-3.321
										c4.742,2.095,8.216,6.253,11.325,10.402c3.109,4.149,6.135,8.531,10.442,11.417c4.306,2.887,10.323,3.932,14.615,1.024
										c2.819-1.91,4.453-5.23,4.965-8.597s0.018-6.805-0.683-10.137c-1.026-4.875-2.701-9.968-6.603-13.066
										c-4.349-3.453-10.383-3.616-15.932-3.434c-6.368,0.208-12.831,0.686-18.808,2.893
										C584.311,335.121,578.212,339.888,575.675,345.732"/>
								</g>
							</g>
						</g>
					</g>
				</g>
				<g>
					<g>
						<g>
							<g>
								<g>
									<g>
										<path style="fill:#263238;" d="M628.915,418.849c-0.009,0-0.019-0.086-0.031-0.255c-0.01-0.199-0.023-0.446-0.039-0.75
											c-0.024-0.701-0.058-1.665-0.1-2.886c-0.073-2.549-0.177-6.164-0.305-10.612c-0.141-4.479-0.323-9.813-0.646-15.727
											c-0.332-5.912-0.77-12.416-1.667-19.183c-0.456-3.379-0.99-6.684-1.926-9.743c-0.943-3.062-2.198-5.914-3.563-8.525
											c-1.379-2.607-2.891-4.979-4.495-7.056c-1.612-2.07-3.275-3.868-4.908-5.389c-3.299-3.015-6.455-4.857-8.702-5.932
											c-0.568-0.26-1.063-0.515-1.508-0.696c-0.439-0.17-0.816-0.317-1.135-0.441c-0.282-0.114-0.511-0.207-0.696-0.281
											c-0.156-0.066-0.235-0.104-0.232-0.113c0.003-0.008,0.087,0.013,0.249,0.062c0.19,0.062,0.425,0.139,0.714,0.233
											c0.326,0.111,0.711,0.243,1.158,0.396c0.454,0.167,0.958,0.409,1.536,0.656c2.287,1.025,5.502,2.835,8.864,5.844
											c1.664,1.518,3.36,3.318,5.001,5.396c1.634,2.085,3.174,4.47,4.578,7.095c1.39,2.631,2.663,5.498,3.626,8.598
											c0.959,3.113,1.496,6.43,1.955,9.824c0.901,6.795,1.325,13.307,1.63,19.228c0.297,5.923,0.442,11.26,0.536,15.743
											c0.091,4.483,0.127,8.111,0.139,10.618c0.001,1.221,0.002,2.186,0.003,2.887c-0.005,0.305-0.009,0.551-0.012,0.751
											C628.932,418.762,628.924,418.849,628.915,418.849z"/>
									</g>
								</g>
							</g>
						</g>
					</g>
				</g>
			</g>
			<g>
				<g>
					<g>
						<g>
							<g>
								<g>
									<path style="fill:#263238;" d="M633.099,424.103c0,0-0.651-1.726-1.273-4.993c-0.606-3.262-1.061-8.097-0.533-14.027
										c0.497-5.928,2.014-12.884,4.43-20.351c2.386-7.48,5.625-15.479,8.392-24.076c1.372-4.302,2.539-8.559,3.338-12.738
										c0.81-4.178,1.323-8.257,1.649-12.155c0.651-7.8,0.56-14.867,0.37-20.785c-0.201-5.921-0.515-10.708-0.712-14.017
										c-0.096-1.629-0.171-2.907-0.224-3.811c-0.019-0.414-0.035-0.741-0.046-0.992c-0.008-0.224-0.007-0.339,0.002-0.339
										c0.009,0,0.026,0.113,0.051,0.335c0.025,0.25,0.057,0.576,0.098,0.988c0.076,0.903,0.184,2.178,0.322,3.804
										c0.258,3.305,0.629,8.09,0.877,14.018c0.237,5.924,0.367,13.006-0.26,20.838c-0.314,3.913-0.819,8.012-1.627,12.213
										c-0.797,4.203-1.966,8.484-3.343,12.799c-2.776,8.625-6.028,16.615-8.431,24.066c-2.434,7.436-3.979,14.346-4.52,20.237
										c-0.572,5.891-0.176,10.7,0.366,13.958c0.286,1.628,0.547,2.889,0.776,3.729c0.098,0.402,0.175,0.72,0.235,0.964
										C633.086,423.987,633.107,424.1,633.099,424.103z"/>
								</g>
							</g>
						</g>
					</g>
				</g>
			</g>
			<g>
				<g>
					<g>
						<g>
							<g>
								<polygon style="fill:#455A64;" points="668.032,422.61 599.018,422.61 597.442,409.327 668.032,409.327 								"/>
							</g>
						</g>
					</g>
				</g>
			</g>
			<g>
				<g>
					<g>
						<g>
							<g>
								<polygon style="fill:#455A64;" points="606.424,421.098 615.052,460.947 652.554,460.947 660.626,421.098 								"/>
							</g>
						</g>
					</g>
				</g>
			</g>
			<g>
				<g>
					<g>
						<g>
							<g>
								<g>
									<path style="fill:#455A64;" d="M668.031,422.61c-0.001,0.182-15.174,0.286-33.887,0.234
										c-18.719-0.053-33.889-0.242-33.888-0.424c0-0.181,15.171-0.286,33.89-0.234
										C652.859,422.239,668.032,422.429,668.031,422.61z"/>
								</g>
							</g>
						</g>
					</g>
				</g>
			</g>
			<g>
				<g>
					<g>
						<g>
							<g>
								<g>
									<path style="fill:#263238;" d="M656.187,442.279c-0.088,0.133-2.036-1.875-6.078-3.484
										c-2.005-0.797-4.542-1.419-7.391-1.484c-2.855-0.093-5.953,0.589-9.086,1.667c-3.146,1.064-6.084,2.302-8.945,2.983
										c-2.875,0.62-5.55,0.574-7.73,0.233c-2.187-0.342-3.882-0.991-4.968-1.573c-0.536-0.307-0.946-0.554-1.198-0.761
										c-0.259-0.195-0.387-0.306-0.374-0.324c0.036-0.053,0.589,0.342,1.685,0.856c1.1,0.501,2.776,1.066,4.92,1.343
										c2.137,0.276,4.754,0.269,7.53-0.363c2.763-0.691,5.699-1.942,8.869-3.016c3.161-1.09,6.37-1.78,9.313-1.65
										c2.933,0.101,5.524,0.789,7.55,1.659c2.044,0.848,3.528,1.876,4.498,2.624c0.486,0.378,0.843,0.695,1.072,0.924
										C656.087,442.137,656.202,442.262,656.187,442.279z"/>
								</g>
							</g>
						</g>
					</g>
				</g>
			</g>
			<g>
				<g>
					<g>
						<g>
							<g>
								<g>
									<path style="fill:#FFFFFF;" d="M655.663,444.94c-0.09,0.135-1.965-1.813-5.837-3.437c-1.926-0.797-4.373-1.415-7.127-1.469
										c-2.758-0.076-5.758,0.549-8.79,1.582c-3.041,1.016-5.893,2.195-8.619,2.929c-2.722,0.743-5.291,1.004-7.429,0.834
										c-2.143-0.149-3.814-0.754-4.87-1.303c-0.521-0.295-0.918-0.533-1.161-0.735c-0.25-0.189-0.374-0.297-0.361-0.315
										c0.037-0.054,0.57,0.332,1.632,0.819c1.066,0.466,2.701,0.983,4.788,1.069c2.08,0.107,4.579-0.193,7.238-0.953
										c2.667-0.751,5.499-1.941,8.574-2.969c3.061-1.044,6.169-1.676,9.012-1.563c2.839,0.089,5.346,0.775,7.293,1.646
										c1.963,0.856,3.379,1.872,4.308,2.607c0.466,0.369,0.807,0.68,1.028,0.902C655.568,444.802,655.678,444.923,655.663,444.94
										z"/>
								</g>
							</g>
						</g>
					</g>
				</g>
			</g>
			<g>
				<g>
					<g>
						<g>
							<g>
								<g>
									<path style="fill:#FFFFFF;" d="M656.871,439.637c-0.085,0.124-2.11-1.909-6.241-3.678
										c-2.051-0.872-4.639-1.646-7.575-1.821c-2.94-0.206-6.143,0.545-9.376,1.652c-3.252,1.09-6.27,2.413-9.261,3.024
										c-2.991,0.542-5.739,0.376-7.983,0.013c-2.247-0.39-4-1.031-5.128-1.623c-0.557-0.31-0.984-0.56-1.245-0.773
										c-0.269-0.2-0.402-0.313-0.389-0.332c0.037-0.053,0.607,0.355,1.745,0.874c1.14,0.51,2.877,1.07,5.089,1.394
										c2.206,0.298,4.909,0.409,7.796-0.149c2.864-0.615,5.894-1.953,9.165-3.052c3.258-1.118,6.578-1.882,9.624-1.635
										c3.029,0.215,5.659,1.058,7.726,2.001c2.082,0.931,3.603,1.996,4.604,2.772c0.5,0.392,0.869,0.717,1.106,0.955
										C656.767,439.491,656.886,439.62,656.871,439.637z"/>
								</g>
							</g>
						</g>
					</g>
				</g>
			</g>
		</g>
		<g>
			<g>
				<path style="fill:#263238;" d="M668.032,422.61c0,0.144-15.463,0.26-34.534,0.26c-19.077,0-34.537-0.117-34.537-0.26
					c0-0.144,15.46-0.26,34.537-0.26C652.569,422.35,668.032,422.466,668.032,422.61z"/>
			</g>
		</g>
	</g>
</g>
<g id="table">
	<g>
		<g>
			<path style="fill:#263238;" d="M706.461,460.947c0,0.144-148.412,0.26-331.445,0.26c-183.097,0-331.477-0.116-331.477-0.26
				c0-0.144,148.381-0.26,331.477-0.26C558.049,460.687,706.461,460.804,706.461,460.947z"/>
		</g>
	</g>
</g>
</svg>
