<svg class="svg-icon" style="width: 1em; height: 1em;vertical-align: middle;fill: currentColor;overflow: hidden;" viewBox="0 0 1024 1024" version="1.1" xmlns="http://www.w3.org/2000/svg"><path d="M256 499.2c0 15.36 10.24 25.6 25.6 25.6s25.6-10.24 25.6-25.6c0-20.48 17.92-38.4 38.4-38.4s38.4 17.92 38.4 38.4c0 15.36 10.24 25.6 25.6 25.6s25.6-10.24 25.6-25.6c0-48.64-40.96-89.6-89.6-89.6s-89.6 40.96-89.6 89.6zM588.8 499.2c0 15.36 10.24 25.6 25.6 25.6s25.6-10.24 25.6-25.6c0-20.48 17.92-38.4 38.4-38.4s38.4 17.92 38.4 38.4c0 15.36 10.24 25.6 25.6 25.6s25.6-10.24 25.6-25.6c0-48.64-40.96-89.6-89.6-89.6s-89.6 40.96-89.6 89.6z"  /><path d="M870.4 460.8h-7.68c-12.8-64-46.08-122.88-92.16-171.52-10.24-10.24-25.6-10.24-35.84 0-10.24 10.24-10.24 25.6 0 35.84 56.32 56.32 84.48 133.12 84.48 212.48 0 112.64-58.88 209.92-148.48 263.68 12.8-25.6 20.48-53.76 20.48-84.48 0-99.84-79.36-179.2-179.2-179.2s-179.2 79.36-179.2 179.2c0 30.72 7.68 58.88 20.48 84.48-89.6-53.76-148.48-151.04-148.48-263.68 0-168.96 138.24-307.2 307.2-307.2 40.96 0 79.36 7.68 115.2 23.04 5.12 2.56 7.68 2.56 12.8 2.56s7.68 2.56 12.8 2.56c48.64 0 89.6-40.96 89.6-89.6s-40.96-89.6-89.6-89.6c-20.48 0-40.96 7.68-56.32 20.48-10.24 7.68-12.8 25.6-2.56 35.84 7.68 10.24 25.6 12.8 35.84 2.56 7.68-5.12 15.36-7.68 23.04-7.68 20.48 0 38.4 17.92 38.4 38.4s-17.92 38.4-38.4 38.4h-7.68-2.56c-40.96-15.36-84.48-25.6-130.56-25.6-171.52 0-314.88 120.32-350.72 281.6h-7.68c-56.32 0-102.4 46.08-102.4 102.4s46.08 102.4 102.4 102.4c7.68 0 15.36 0 23.04-2.56 51.2 135.68 181.76 232.96 335.36 232.96s284.16-97.28 335.36-232.96c7.68 2.56 15.36 2.56 23.04 2.56 56.32 0 102.4-46.08 102.4-102.4s-46.08-104.96-102.4-104.96z m-716.8 153.6c-28.16 0-51.2-23.04-51.2-51.2s25.6-51.2 51.2-51.2v25.6c0 25.6 2.56 51.2 7.68 76.8h-7.68z m230.4 102.4c0-71.68 56.32-128 128-128s128 56.32 128 128-56.32 128-128 128-128-56.32-128-128z m486.4-102.4h-7.68c5.12-25.6 7.68-48.64 7.68-76.8v-25.6c28.16 0 51.2 23.04 51.2 51.2s-23.04 51.2-51.2 51.2z"  /><path d="M512 640c-43.52 0-76.8 33.28-76.8 76.8s33.28 76.8 76.8 76.8 76.8-33.28 76.8-76.8-33.28-76.8-76.8-76.8z m0 102.4c-15.36 0-25.6-10.24-25.6-25.6s10.24-25.6 25.6-25.6 25.6 10.24 25.6 25.6-10.24 25.6-25.6 25.6z"  /></svg>