<?xml version="1.0" encoding="UTF-8"?>
<svg width="24px" height="24px" viewBox="0 0 24 24" version="1.1" xmlns="http://www.w3.org/2000/svg" xmlns:xlink="http://www.w3.org/1999/xlink">
    <title>dark-blue/shopping</title>
    <defs>
        <path d="M19.41,9.58 L10.41,0.58 C10.05,0.22 9.55,0 9,0 L2,0 C0.9,0 0,0.9 0,2 L0,9 C0,9.55 0.22,10.05 0.59,10.42 L9.59,19.42 C9.95,19.78 10.45,20 11,20 C11.55,20 12.05,19.78 12.41,19.41 L19.41,12.41 C19.78,12.05 20,11.55 20,11 C20,10.45 19.77,9.94 19.41,9.58 Z M11,18.01 L2,9 L2,2 L9,2 L9,1.99 L18,10.99 L11,18.01 L11,18.01 Z M4.5,3 C3.67157288,3 3,3.67157288 3,4.5 C3,5.32842712 3.67157288,6 4.5,6 C5.32842712,6 6,5.32842712 6,4.5 C6,3.67157288 5.32842712,3 4.5,3 Z" id="path-1"></path>
    </defs>
    <g id="dark-blue/shopping" stroke="none" stroke-width="1" fill="none" fill-rule="evenodd">
        <rect id="view-box" x="0" y="0" width="24" height="24"></rect>
        <g id="◆/ico/facility/shopping">
            <rect id="view-box" x="0" y="0" width="24" height="24"></rect>
            <g id="icon/maps/local_offer_24px" transform="translate(2.000000, 2.000000)">
                <mask id="mask-2" fill="white">
                    <use xlink:href="#path-1"></use>
                </mask>
                <g fill-rule="nonzero"></g>
                <g id="↳-Color" mask="url(#mask-2)" fill="#193354">
                    <g transform="translate(-2.000000, -2.000000)" id="colour">
                        <rect x="0" y="0" width="24" height="24"></rect>
                    </g>
                </g>
            </g>
        </g>
    </g>
</svg>